<?xml version="1.0" standalone="no"?>
<!DOCTYPE svg PUBLIC "-//W3C//DTD SVG 1.1//EN" "http://www.w3.org/Graphics/SVG/1.1/DTD/svg11.dtd" >
<svg xmlns="http://www.w3.org/2000/svg">
<metadata></metadata>
<defs>
<font id="karenregular" horiz-adv-x="1228" >
<font-face units-per-em="2048" ascent="1638" descent="-410" />
<missing-glyph horiz-adv-x="500" />
<glyph horiz-adv-x="2048" />
<glyph horiz-adv-x="2048" />
<glyph unicode="&#xd;" horiz-adv-x="2048" />
<glyph unicode=" " />
<glyph unicode="!" d="M436 1337q3 -32 43 -374.5t45 -407.5q4 -46 31.5 -60t62.5 -8q19 3 40.5 28.5t29.5 51.5q4 12 5 27.5t-0.5 27t-4.5 31t-4 29.5q-2 21 -17.5 154.5t-19.5 203.5q-2 47 2.5 147.5t1.5 151.5q0 22 -19 52t-34 30q-47 0 -135 -41q-9 -3 -18.5 -18t-8.5 -25zM547.5 113 q-1.5 -20 1.5 -31q7 -66 76 -74q75 -6 117.5 16.5t64.5 90.5q2 6 11.5 16.5t16 18.5t2.5 21t-24 28q-74 60 -122 60t-132 -69q-1 -5 -4 -22t-4.5 -26t-3 -29z" />
<glyph unicode="." d="M412 188q13 -60 24.5 -91t37 -54.5t63.5 -32t104 -10.5q1 1 25 20.5t39.5 34.5t27.5 33q42 67 -12 121q-41 42 -75 61t-74.5 16.5t-88.5 -30.5q-6 -4 -30.5 -4.5t-36 -13.5t-4.5 -50z" />
<glyph unicode="0" />
<glyph unicode="1" />
<glyph unicode="2" />
<glyph unicode="3" />
<glyph unicode="4" />
<glyph unicode="5" />
<glyph unicode="6" />
<glyph unicode="7" />
<glyph unicode="8" />
<glyph unicode="9" />
<glyph unicode="?" />
<glyph unicode="@" d="M86 442q13 103 70 263q11 29 53 71l2 2l27 27q6 8 14.5 22.5t11.5 18.5q10 12 21 31l4 6q17 26 33 37q38 33 40 34l11 11q120 102 166 135q94 69 166 69q12 0 36 -4q78 -18 133.5 -48t88.5 -89l45 -74q71 -116 90 -166q66 -173 -29 -344q-73 -121 -199 -159 q-14 -3 -49 -21q-68 -33 -108 -33q-17 0 -41 7l-31 6h-2q-39 5 -57 12q-24 10 -46.5 30.5t-25.5 45.5q-6 70 16 137q7 23 45 92q10 15 21 37q38 74 112 118t160 44q34 0 76 -10q8 -2 43 -27q-13 59 -39 106q-66 129 -176 195q-8 4 -25 4q-9 0 -45 -4q-13 -2 -41 -18l-16 -9 q-15 -7 -33 -22l-10 -10q-17 -17 -27 -25q-7 -5 -61 -53q-53 -48 -68 -58q-38 -27 -57 -59q-29 -41 -31 -43q-50 -74 -69 -111q-23 -41 -54 -155l-8 -33q-11 -37 0 -113q0 -13 4 -41q3 -43 11 -77v-4l4 -29l2 -6l6 -15q15 -33 18 -57q7 -26 15 -43q0 -2 2 -2q0 -4 4 -12 l2 -6q2 -3 4 -8t3.5 -8.5t2.5 -4.5v-2l2 -6q1 -6 8 -27q54 -87 129 -192q36 -42 39 -45l4 -4l27 -31q16 -19 92 -90q117 -111 156 -158q35 -43 26 -70q-26 -59 -86 -59q-35 0 -55 23q-13 11 -25.5 24.5t-27.5 31t-23 25.5l-2 3q-12 17 -33 38l-4 7q-57 20 -96 92 q-3 7 -14 12q-33 23 -45 49q-17 39 -82 113q-34 39 -89 139t-61 119q-42 105 -49 217q0 17 -4 63v9q-9 113 -2 159zM645 387q5 -8 27 -8q18 0 33 6q29 9 59 12q64 12 90 27q58 34 86 72q18 24 14 39l-32 26q-35 21 -41 21q-4 1 -12 2t-11 2h-2q-14 2 -39 2q-40 0 -59 -31 q-16 -26 -47 -61q-26 -26 -41 -50q-25 -40 -25 -59z" />
<glyph unicode="A" d="M180 145q9 55 36.5 154.5t35.5 140.5q9 45 19.5 132t17.5 126q70 293 121 484q8 32 85 32h5q82 -1 123 -32q119 -90 188.5 -181.5t89.5 -218.5q19 -114 70 -319t65 -268q6 -32 6 -57q0 -44 -18 -67q-23 -28 -78 -28q-15 0 -33 2q-26 5 -56.5 31.5t-29.5 44.5q1 23 -11 52 t-24 51t-12 53t21 63q8 11 7.5 28.5t-9 34t-26 30t-43 16.5t-60.5 -7q-13 0 -45 2t-58.5 1.5t-50.5 -5.5q-30 -8 -58 -32t-34 -50q-25 -97 -29 -237q-3 -133 -129 -133q-45 0 -72 47q-18 32 -18 71q0 19 4 39zM494 668q0 -10 6 -24q7 -16 8 -21q35 5 104 14t101 14 q10 1 21.5 10t13.5 17q1 6 1 13q0 47 -54 137q-62 104 -111 122q-2 1 -5 1q-5 1 -13 -3q-11 -6 -13 -12q-59 -221 -59 -268z" />
<glyph unicode="B" d="M197 512q0 56 8 162q4 114 16 370q3 65 27 82q17 13 58 13q15 0 32 -2h13q37 0 97 13q68 15 101 15h4q14 -1 34 7q21 7 35 13q10 4 23 4q5 -1 11 -1q20 -2 38 -19q11 -13 50.5 -11.5t60.5 -4.5q51 -19 77 -71q21 -41 21 -88q1 -12 -1 -24q-6 -60 -46 -100 q-11 -11 -32 -29.5t-37.5 -35t-28.5 -33.5q-9 -10 -10.5 -38t4.5 -29q47 -24 84 -60t62 -80.5t40.5 -84t28.5 -87.5q13 -43 17 -77q3 -22 2 -48v-32q-2 -46 -26.5 -87.5t-68.5 -74.5q-192 -147 -344 -168q-16 2 -43.5 2.5t-41.5 2.5t-31 7.5t-26 19.5t-14 37q-1 7 -23 15 t-36 6q-23 -3 -41 -3q-45 1 -62 21q-24 30 -24 131q-1 60 -4 182.5t-4 184.5zM377 596q1 -49 4 -104.5t7.5 -123t6.5 -104.5q0 -6 0.5 -20.5t1.5 -23t3.5 -19t7.5 -17.5q65 -82 138 -82q24 0 48 9q22 9 60.5 29.5t54.5 27.5q67 32 82 68q6 15 6 37q0 32 -13 79 q-35 129 -114.5 194.5t-208.5 74.5q-11 -4 -33.5 -9.5t-36.5 -9t-14 -6.5zM397 879q-2 -8 -2 -15q-1 -20 13 -27q18 -9 58 -10h15h4q29 0 55 13q28 14 47 31.5t45.5 36t51.5 24.5q6 2 12 11.5t12 24.5t9 21q-40 8 -49 8q-26 -3 -68.5 -4.5t-72 -5t-54.5 -12.5t-48.5 -38 t-27.5 -58z" />
<glyph unicode="C" d="M213 446q2 -83 25 -165q40 -145 164 -230q88 -61 186 -61q39 0 80 10q105 26 163 76q47 41 121 166q4 8 4 21q0 9 -2 21q-5 28 -14 33q-7 4 -19.5 13.5t-21 15.5t-21 10.5t-22.5 3.5t-22 -10.5t-23 -27.5q-39 -60 -104 -82q-69 -24 -110 -24q-24 0 -38 9 q-139 78 -139 208q0 17 2 36q6 48 16 162t19 174q5 34 22 67t41 46q30 15 52.5 21.5t52.5 -2t53 -40.5q9 -12 55 -5.5t55 21.5q12 26 12 57q0 14 -2 29q-8 47 -40 90.5t-70 57.5q-44 17 -90 17h-16q-54 -4 -104.5 -21t-95 -52t-76.5 -79q-33 -44 -51 -100q-17 -54 -17 -109 v-6q-2 -33 -14 -151q-11 -101 -11 -176v-24z" />
<glyph unicode="D" d="M128 1154v7q0 21 9 41q6 11 46.5 40t54.5 34l14 4q6 1 16 1q21 0 63 -5q62 -8 119.5 -19t59.5 -10q28 0 46.5 -2t45 -9.5t48 -26t38.5 -48.5q3 -6 7.5 -12t8.5 -11t11.5 -11t12 -9.5t14 -9.5t13.5 -9t15.5 -9.5t15 -8t16 -8.5t15.5 -8l10 -6q45 -23 79 -55t55.5 -65 t37.5 -79.5t24 -85t17 -94.5q8 -48 7 -95q0 -267 -259 -474q-48 -41 -155 -41q-36 0 -126.5 -14t-129.5 -38l-6 -4q-9 -2 -21 -14q-11 -11 -36 -13h-6q-56 0 -84 89q-23 74 -23 204v15q0 34 -13 147q-13 82 -16 115q-4 57 -4 172q0 88 -2 131q-1 9 -1 20q0 23 3 56 q1 31 1.5 58t-6 57t-20.5 57q-13 20 -15 46zM373 1069l73 -737l9 -2q1 0 21 -6t30 -7q45 -9 83 -9q54 0 93 19q66 33 117 136q17 34 25 68q6 27 5 59v18q-2 43 -5 67t-11 77q-2 7 -5 24.5t-5 24.5q-2 14 -14 31.5t-29 27.5q-20 12 -98 70q-44 34 -69 52t-64 41t-77 34 t-79 12z" />
<glyph unicode="E" d="M190 541q5 -27 22.5 -58.5t31.5 -31.5q25 0 41 -6t24 -13.5t11.5 -22t3 -24.5t-2.5 -29.5t-2 -27.5q-1 -24 -7 -99q-5 -57 -5 -95v-21q2 -45 3.5 -65.5t9.5 -42t14 -27.5t29.5 -12.5t42 -6.5h65.5q82 0 346 18q52 6 72.5 37t23.5 84q1 50 -23 66q-20 14 -57 14h-14h-114 h-55.5t-43 2.5t-35.5 2.5t-24.5 8t-18.5 11.5t-10.5 19.5t-7.5 24.5t-1 34.5t0 43t3 55q0 7 18.5 32t30.5 25h12q29 0 98 -3q26 -1 47 -1q46 0 60 6q16 4 28.5 30t18 56t3 56t-12.5 30q-46 17 -153 21q-95 4 -115 13q-25 12 -25 58q0 21 6 82q8 70 72 101q25 12 47 12 q35 0 64 -31q19 -22 38.5 -28.5t30.5 -4t33.5 13t30.5 13.5q48 18 72 48q16 19 15 43q0 14 -5 30q-39 104 -128 104h-3q-16 -1 -52.5 -5t-53 -4t-50.5 5q-50 13 -93 13q-70 0 -120 -34q-81 -54 -80 -183q0 -21 1 -55t1 -52q0 -8 1 -29.5t0.5 -30.5t-4.5 -24.5t-12.5 -22.5 t-25 -12.5t-41.5 -5.5q-42 1 -64 -31q-15 -22 -15 -50q0 -11 3 -23z" />
<glyph unicode="F" d="M-85 673q-4 -19 -4 -37q0 -20 5 -38q6 -22 40 -44q30 -19 54 -19h6q181 6 387 38q42 9 60.5 -2.5t23.5 -48.5q2 -18 10 -59t9 -64q0 -9 0.5 -26.5t1 -29.5t-0.5 -26t-4 -23t-9 -13q-24 -15 -37 -33.5t-17.5 -32.5t-0.5 -38.5t7.5 -36.5t14.5 -42q10 -32 10 -66 q0 -21 -4 -44v-7q0 -37 47 -57q46 -19 95 -18h14q57 3 65 22q24 51 24 140q0 13 -1 28q-2 80 -12.5 228.5t-12.5 173.5q0 12 11.5 30.5t19.5 18.5q39 -3 130.5 -15.5t141.5 -15.5h22q54 0 103 12q19 3 25 58q1 16 1 31q0 77 -32 107q-33 30 -123 31q-13 0 -27 -1 q-17 0 -59 -1q-28 -1 -51 0q-11 -1 -21 -1q-30 0 -57 4q-53 8 -80 30q-20 17 -20 52q0 12 2 26q4 10 2 35t-3.5 35.5t-6.5 36t-7 35.5q-6 29 -6 52q0 42 20 62q19 20 57 20q23 0 52 -7q12 -2 36 3t30 5q54 9 69 16q7 3 32.5 12t37.5 14t26.5 15t18.5 21q8 22 8 42 q0 25 -12 48q-22 41 -78 41q-156 0 -428 -27q-18 -1 -39.5 -32.5t-19.5 -53.5q3 -173 26 -377q1 -11 1 -21q0 -40 -19.5 -60t-59.5 -20q-10 0 -20 1q-6 2 -25 2q-20 0 -50 -2q-62 -4 -76 -4q-24 0 -82 4q-45 3 -74 2h-16q-86 0 -109 -13q-8 -4 -12 -10q-22 -25 -30 -66z" />
<glyph unicode="G" d="M129 367q3 -45 25.5 -90t43.5 -70.5t67 -72.5t61 -64q38 -45 92 -54q30 -5 68 -5q29 0 63 3q39 4 64 4q45 0 49 -12q11 -27 11 -63q0 -33 -9 -74q-5 -25 -5 -44q0 -25 8 -41q14 -29 68 -30h20q84 0 117 22q32 22 32 77q0 8 -1 18q-20 232 -45 346q-5 24 -5 41q0 23 9 34 q9 12 35 12q13 0 31 -3q19 -4 38 -4q77 0 150 59q16 13 28 34q11 18 11 32v2q-2 17 -18 38.5t-29 22.5q-11 1 -70 19q-36 12 -67 12q-19 0 -35 -4q-23 -6 -46.5 -10.5t-53.5 -6t-46.5 -3t-55.5 0.5t-47.5 2t-55.5 3.5t-49 3.5h-3q-34 0 -48 -38q-11 -29 -11 -62q0 -10 1 -22 q5 -44 20 -58q4 -4 11.5 -9.5t14.5 -9.5t13.5 -8t10.5 -6.5t3 -3.5q-11 -38 -35 -61.5t-53 -6.5q-112 74 -150 154q-22 46 -30 97q-5 39 -5 72v17q2 39 17.5 93t27.5 85t37 90.5t35 85.5q5 14 16 26t29 12t33 -23q33 -48 115 -187q6 -9 14 -28t15 -30.5t14 -12.5 q24 -3 51.5 5t40.5 25q9 10 13 26t5.5 40t3.5 33q3 25 3 48q0 33 -6 63q-11 52 -41.5 96t-63 76.5t-80.5 70.5q-39 26 -89 26q-29 0 -63 -9q-89 -25 -159 -93q-35 -35 -59 -112t-31 -91q-39 -76 -57 -165q-19 -87 -19 -165q0 -76 6 -175z" />
<glyph unicode="H" horiz-adv-x="1241" d="M0 470q0 -18 28 -46q31 -30 56 -33q44 -4 71 -4q3 1 6 1q27 0 78.5 2.5t79.5 2.5q15 0 37.5 -9t22.5 -15q-1 -35 -6.5 -119t-5.5 -129q0 -37 6 -72t18 -39q43 -13 96 -13q34 0 72 5q10 1 18.5 30.5t10.5 55.5q3 38 4 113t4 112q1 13 3 21.5t8 21t18 9.5t30 -23 q14 -14 33 -10q26 5 79 16.5t79 16.5q18 4 33 4q68 0 73 -78q1 -18 4.5 -55t4 -55.5t-2.5 -55.5q0 -13 -1.5 -23t3.5 -19t7.5 -15.5t10.5 -12.5t13 -9.5t14.5 -8t15 -6.5t14.5 -5.5t14 -5.5q15 -6 31 -6q30 0 66 20q56 31 62 72t6 70.5t-6 48.5q-27 65 -32.5 191t-16.5 174 q-13 56 -19.5 121.5t-11.5 145.5t-10 124q-3 21 -18 48.5t-25 27.5q-29 0 -59 -10.5t-47 -28.5q-52 -62 -52 -142q0 -58 27 -126q18 -46 18 -80q0 -26 -11 -46q-25 -44 -107 -44h-47q-9 -1 -22.5 -3t-18.5 -2.5t-15 0.5q-10 2 -43 7.5t-51.5 12t-23.5 17.5q-21 44 -21 121 q0 23 2 49q5 49 5 100q0 69 -9 142q-4 57 -30 78q-23 18 -68 18h-13q-57 -2 -83 -26q-21 -19 -20 -60q0 -9 1 -20q2 -20 1 -60t1 -59t13.5 -77t11.5 -89q0 -25 -0.5 -35.5t-4 -33.5t-10.5 -34.5t-21.5 -23t-35.5 -14.5q-58 -9 -142 -9q-48 0 -104 3q-23 1 -40 -7t-26 -16.5 t-16 -28.5q-6 -20 -8 -27q-6 -26 -6 -33z" />
<glyph unicode="I" horiz-adv-x="638" d="M155 1063v-13q0 -12 1 -23q2 -16 5.5 -40.5t4.5 -38.5q3 -28 23 -200t26 -263q1 -21 1 -49q0 -60 -4 -148q-5 -99 -5 -158v-32q0 -28 25 -66t44 -38q65 0 177 53q11 5 23 25q9 15 10 26q0 3 -1 6q-7 67 -34 300t-50.5 439.5t-27.5 270.5q-8 88 -95 88q-12 0 -26 -2 q-25 -3 -52.5 -36t-37.5 -66q-6 -15 -7 -35z" />
<glyph unicode="J" horiz-adv-x="974" d="M146 -101q19 54 75 76q31 11 63 11q62 0 130 -41q3 -2 14 -8t16 -8.5t14.5 -6.5t15 -4.5t13.5 0t12.5 5t9 13t7.5 21.5q13 61 13 132q0 44 -5 93q-7 79 -26 446t-23 425q-3 26 15 61t38 41q9 3 20 3q20 0 46 -8q40 -13 49 -32q66 -160 76 -282q5 -61 5 -236q1 -34 1 -71 q0 -146 -2 -317q-2 -214 -2 -235q0 -19 1 -59q2 -30 2 -54v-16q-1 -30 -5 -57q-6 -26 -27 -57t-34 -31h-1q-102 6 -401 51q-74 18 -96 45q-22 29 -22 62q0 18 8 38z" />
<glyph unicode="K" d="M143 1397v-18q0 -52 9 -130q2 -13 18 -77q16 -61 16 -95q0 -57 -13 -183q-12 -116 -15 -165v-13q0 -44 6 -116q6 -84 6 -121q0 -23 -6 -175q-4 -91 -4 -157q0 -43 2 -75q1 -24 30 -52.5t58 -37.5q6 -2 12 -2q18 0 42 12q34 17 42 37q5 14 19 39.5t21 43.5t10.5 41 t-8.5 44.5t-40 42.5q-4 3 -5 10t0 22.5t1 18.5q1 17 7 52t7.5 52.5t-2.5 50.5q-5 26 7 39t30.5 13.5t33.5 -2t19 -4.5q48 -34 136.5 -99.5t113.5 -83.5q4 -3 23.5 -35.5t43.5 -74t36 -58.5q10 -14 29 -51t34 -55q15 -21 37 -37.5t41 -17.5h6q22 0 52 13q34 15 34 27v30.5v35 t-0.5 33t-2.5 33.5t-5.5 26.5t-9 23.5t-13.5 13q-44 24 -81.5 65t-74 88.5t-67.5 73.5q-20 17 -45.5 48t-43.5 54.5t-48.5 43.5t-67.5 24q-6 0 -12.5 30t0.5 34q62 53 220.5 180.5t201.5 157.5q12 8 21.5 21.5t20 34t15.5 28.5q-21 80 -50 106q-14 13 -33 13t-42 -13 q-8 -5 -32 -19.5t-35 -21.5t-31 -21t-31.5 -25t-24.5 -26t-20 -30q-24 -46 -64.5 -80.5t-92 -67.5t-78.5 -59q-25 -23 -113 -41q-6 -1 -18.5 11t-12.5 20q0 13 8 90q4 43 4 74q0 25 -3 43q-20 164 -72 342q-5 23 -100 28h-5q-13 1 -30 -7q-21 -10 -21 -17z" />
<glyph unicode="L" horiz-adv-x="983" d="M154 760q0 -13 -1 -26q1 -66 3 -148q2 -98 2 -146q0 -22 -2 -66q-2 -35 -2 -64v-14q0 -34 6 -65q6 -29 30 -65t38 -35h1q192 15 465 62q79 8 111 49q25 34 25 70q0 21 -8 42q-23 59 -89 84q-38 14 -76 14q-70 0 -145 -46q-15 -9 -22.5 -13t-22.5 -11.5t-24 -7.5t-20 2.5 t-18 13.5t-10 30q-17 70 -17 156q0 47 5 98q6 72 29 231t28 244v8q0 27 -18 62q-20 40 -43 47q-11 3 -23 3q-23 1 -53 -9q-46 -14 -55 -37q-75 -180 -88 -318q-6 -69 -6 -145z" />
<glyph unicode="M" horiz-adv-x="1409" d="M153 1141q0 -13 4 -29q4 -18 15 -37q12 -17 12 -55v-445q-1 -59 -8.5 -187t-7.5 -195v-11q0 -28 8 -56q10 -34 29 -48q23 -19 64 -24.5t61 7.5q24 18 42 58q12 29 13 51q0 9 -2 16q-17 67 -19 140q-1 19 -1 41q0 58 5 128q6 96 5 138q-1 11 2 22.5t8.5 25t7.5 21.5 q6 -4 22.5 -14t27.5 -18.5t18 -18.5q11 -13 36 -54.5t44 -57.5q89 -76 145 -76q22 -1 51.5 32t44.5 68q34 77 123 221.5t107 155.5q6 5 19.5 9.5t17.5 6.5q1 -6 -5 -66q-5 -50 -4 -70v-7q2 -39 33 -350q-5 -41 -14 -104.5t-14.5 -111.5t-8.5 -91q-2 -22 -2 -40q0 -63 27 -83 q25 -21 68 -29q17 -3 31 -4q21 0 34 8q37 22 51 133q2 45 2 63.5t-2.5 64t-3.5 63.5q0 75 1 225.5t1 226.5q-1 28 -5 90q-4 50 -3 91v18q1 47 12 86q11 45 11 81q0 14 -2 28q-7 44 -37 98q-17 28 -41 37q-14 5 -25 5q-9 0 -17 -2q-18 -6 -32 -22q-142 -151 -266 -315 q-35 -45 -90.5 -135.5t-67.5 -108.5q-3 -6 -15 -9.5t-14 -0.5q-9 10 -51.5 60.5t-59 70.5t-45 58.5t-49.5 70.5q-20 30 -37 66t-36 84.5t-29 70.5q-22 47 -61 63q-14 6 -25 6q-22 0 -39 -20q-3 -5 -18.5 -25t-20.5 -28q-4 -7 -14 -26q-10 -20 -11 -35z" />
<glyph unicode="N" d="M145 831q21 -22 31.5 -46.5t12 -41.5t1.5 -51q1 -47 4.5 -101t6 -83t0.5 -31q-11 -108 -11 -183q0 -155 48 -159q32 -8 58 -8q46 0 68 27q24 30 25 78q0 19 -4 40q-9 50 -15 111t-8.5 101t-6 118t-5.5 105q0 13 15 28q13 5 28 -10q20 -25 60.5 -70t72.5 -84t56 -75 q35 -53 72 -114t81.5 -135.5t69.5 -115.5q25 -39 77 -55q20 -6 37 -6q26 0 42 16q18 18 27 53q7 29 7 56v12q-6 76 -21 215.5t-20 193.5q-4 32 -4 57.5t4 45.5q8 52 52 303q-1 10 1 16q1 2 1 4q0 4 -4 10q-4 8 -4 11t-7 9t-9 8t-10 7t-10.5 6.5t-11 5.5t-10.5 5t-6 1 q-11 -1 -34 -15q-30 -20 -42 -39q-6 -9 -9 -22.5t-3.5 -23t0 -29.5t0.5 -26q0 -12 4.5 -49.5t1.5 -56.5q-28 -151 -28 -267q0 -81 14 -145q0 -6 -5 -17.5t-6 -15.5q-16 10 -26 23q-43 72 -47 78q-14 19 -61.5 88.5t-80 113t-67.5 82.5q-80 88 -248 209q-19 13 -56 10 t-55 -18q-66 -60 -66 -105q0 -27 23 -49z" />
<glyph unicode="O" horiz-adv-x="1034" d="M174 799q8 35 23.5 72.5t38.5 84t34 72.5q9 23 24.5 44.5t28 35.5t38.5 33t36.5 26t43.5 27.5t40 24.5q19 11 45 17q12 3 20 3q9 0 13 -4q22 -26 64 -54t74.5 -47.5t59 -59t29.5 -91.5q1 -44 30.5 -122.5t35.5 -102.5q7 -32 27 -199q2 -23 2 -45q0 -206 -191 -395 q-59 -57 -130 -73q-23 -5 -46 -6l-96 22q-71 32 -125 110q-2 2 -19 34.5t-39 76t-32 69.5q-50 142 -50 276q0 87 21 171zM389 868q-46 -134 -46 -255q0 -128 52 -240q25 -53 81 -81q28 -13 51 -14q25 0 46 15q71 55 93 81q44 51 44 113q0 9 -1 17q-9 136 -31.5 240 t-77.5 198q-35 59 -75 59q-26 0 -54 -24q-64 -56 -82 -109z" />
<glyph unicode="P" d="M236 922q-1 46 -1 86q0 120 9 184q2 13 56 25q27 6 45 6t28 -6q27 -17 52 -21t63.5 0t50.5 4q31 1 97 14q54 11 98 11q10 0 20 -1q51 -3 98 -34q82 -52 116 -130q33 -73 33 -181v-13q-1 -7 -4.5 -35.5t-5 -39.5t-6.5 -38t-9.5 -41t-13 -37.5t-18 -39.5t-24 -34.5 t-31.5 -33.5q-24 -21 -55 -38t-72.5 -35.5t-61.5 -28.5q-5 -1 -15 -2t-15 -2q-43 -12 -68.5 -20t-50.5 -20t-37 -20t-22.5 -25.5t-13 -31.5t-2.5 -43t3 -54.5t10 -70.5q10 -54 10 -103q0 -27 -3 -53q-2 -8 -4 -29t-4 -32t-9 -25.5t-17 -18.5q-6 -2 -17 -2q-5 1 -13 1 q-20 2 -47 16q-24 9 -69 71t-46 105q0 11 4 37t2 39q-20 84 -25 173q-3 47 -3 104q0 52 2 112q4 104 4 154v20q0 30 -9 89.5t-9 87.5zM463 817q0 -78 2 -117q0 -56 16 -59q3 -3 10 -3h6q12 2 17 3t17.5 5t17.5 5q8 3 52.5 20.5t68.5 22.5q58 14 90 69q29 50 28 129v15 q0 13 -4.5 24.5t-8.5 19t-15 14.5l-16.5 10.5t-20 7.5t-18.5 5t-20 4t-17 3q-43 7 -76 7q-60 0 -88 -24q-41 -35 -41 -150v-11z" />
<glyph unicode="Q" d="M101 491q8 89 38 197q58 209 162 354q82 118 183 118q25 0 51 -7q98 -23 98 -172v-12q0 -10 0.5 -29.5t1 -32t-1.5 -28t-6 -27.5q-6 -14 -41 -24.5t-41 -2.5q-23 24 -44 24q-28 0 -52 -44q-103 -191 -103 -365q0 -74 19 -145q6 -26 60 -51q37 -16 59 -16q9 0 16 3 q183 111 186 293q0 39 5 109t9.5 125.5t4.5 58.5q0 10 -0.5 29t-0.5 30t3.5 26t11 23.5t22.5 15t37 7.5h3q58 0 81 -34t27 -91q12 -188 18 -383q0 -64 -12 -116q174 -242 276 -390q1 -2 1 -4q0 -6 -5 -17q-7 -15 -18 -22q-108 -75 -164 -98q-8 -3 -19 -3q-13 0 -30 4 q-33 8 -41 22q-15 29 -35 96t-37 98q-25 48 -57 86q-49 -49 -104 -88q-97 -76 -222 -76h-10q-81 3 -135 53.5t-109 141.5q-54 86 -74 181q-13 67 -13 131q0 26 2 52z" />
<glyph unicode="R" d="M131 991v14q-1 81 43 117q37 30 104 29q19 0 41 -2q20 -2 37 -2q47 0 70 18q46 37 100 43q12 1 24 1q41 0 77 -17q12 -6 36 -17l31.5 -15t29.5 -15t29 -17t26 -18t24 -21.5t19 -24t15.5 -28t9 -31.5t4 -37t-4.5 -42q4 -34 2 -61.5t-19.5 -49.5t-52.5 -35 q-12 -5 -29.5 -22.5t-21.5 -20.5q-79 -69 -79 -90q0 -22 68 -77q3 -3 5 -4.5t5 -4t5 -4.5q90 -78 134.5 -118t114.5 -109t122 -129q18 -23 18 -64q0 -8 -1 -17q-4 -54 -25 -93q-18 -32 -49 -32q-36 0 -87 44q-31 28 -43.5 40t-33 36.5t-29.5 46.5q-21 45 -50.5 81.5 t-69 64.5t-72.5 47.5t-83.5 45.5t-78.5 43q-3 2 -19 -11.5t-16 -20.5q-1 -40 5 -123q5 -70 5 -111v-14q0 -10 3 -35t3 -40.5t-12.5 -31t-40.5 -18.5q-35 -3 -61 -3q-33 0 -49 5q-57 16 -70 88q-2 15 -6.5 43t-7.5 52t-5 46q-2 38 -6.5 134.5t-9 165t-10.5 132.5 q-6 45 -35.5 141t-32.5 148zM379 940q3 -75 16 -127q5 -15 17 -30.5t22 -16.5q4 -1 8 -1q10 0 22 5q18 7 28 18q33 30 106 107q5 7 14.5 20t12.5 17q-2 5 -6 16.5t-7 14.5q-30 20 -92 23h-19q-46 0 -55 -13q-3 -5 -18 -10.5t-20 -8.5q-3 -1 -11 -4t-13 -5.5t-5 -4.5z" />
<glyph unicode="S" d="M233 172q-4 -14 -4 -30q0 -24 9 -50q46 -98 159 -110q24 -4 71 -11.5t77 -12.5q31 -4 71 -8q32 -3 60 -3h14q35 1 88.5 61.5t93 133t41.5 110.5q1 14 1 27q0 145 -60 241q-66 106 -221 154q-32 11 -53.5 45t-28.5 39q-3 25 -3 45.5t1.5 35t8 27t9.5 19.5t14 15t14.5 10.5 t18 10t17.5 9.5q11 7 31 12.5t34 6t17 -2.5q16 -34 35 -47.5t38.5 -9t36 14t37 23t33.5 17.5q20 8 34.5 48t16.5 77q0 17 -26 37t-56 33q-34 15 -56 21q-20 6 -46 7q-4 0 -9 -1q-33 -1 -67 -17q-46 -21 -68 -32t-61 -32t-61 -39t-50 -43.5t-47.5 -55.5t-34.5 -66 q-23 -53 -23 -112q0 -56 19 -106q19 -51 52 -93.5t80.5 -68t101.5 -26.5q31 -1 52.5 -35t29.5 -77q6 -36 6 -70v-14q-2 -41 -12 -58q-25 -56 -54 -61q-43 -9 -196 -23q-2 23 -10 37t-17.5 20.5t-24 8t-26.5 0.5t-28.5 -2.5t-26.5 -1.5q-15 0 -33 -8.5t-19 -18.5z" />
<glyph unicode="T" d="M131 956q-2 -14 -2 -27q0 -77 90 -87q4 0 148 -6q133 -10 147 -11q-1 -20 -7 -60t-7 -60v-11q0 -327 10 -565q3 -64 29 -117q9 -24 31 -30q10 -2 19 -3q11 0 23 4q20 7 41 16t23 9q40 4 53 12q18 14 24.5 33t6 30t-7.5 38.5t-9 36.5q-21 70 -25 155q-2 40 -2 77 q0 40 3 76q5 68 9 156q2 47 3 88q0 36 -2 66q0 10 17 25t28 14q14 -3 44.5 4t54 1.5t40.5 -34.5q6 -12 53 -4t66 25q21 18 32 52q9 29 9 57v10q-3 23 -28.5 49.5t-51.5 34.5q-54 10 -159.5 22.5t-133.5 16.5q-12 2 -59 18q-42 14 -66 14h-6q-24 -2 -107.5 -12t-142.5 -16 q-44 -5 -61 -5q-6 0 -8 1q-16 3 -30 3q-75 0 -89 -96z" />
<glyph unicode="U" horiz-adv-x="1146" d="M195 776q-3 79 -3 145q0 189 23 283q11 46 57 56q10 2 19 3q36 1 73 -29q47 -38 60 -114q-10 -84 -12 -222v-24q0 -128 15 -276q16 -160 44 -223q29 -61 94 -93q32 -15 59 -16q29 0 54 17q75 58 96 81q58 61 58 137q0 11 -1 23v10q0 40 5 214q4 152 4 207v26q-1 8 -1 16 q-1 34 11 54q14 25 35.5 26.5t44.5 -8t42.5 -32t26.5 -48.5q9 -44 18 -212t11 -187q3 -28 3 -56q0 -235 -218 -450q-69 -68 -151 -86q-28 -6 -54 -7l-110 25q-82 37 -146 125q0 1 -20.5 39.5t-45.5 89.5t-36 80q-44 124 -55 426z" />
<glyph unicode="V" horiz-adv-x="1093" d="M158 1076q-5 -18 -4 -32q0 -17 6 -30q132 -280 178 -387q20 -47 57.5 -151.5t61.5 -158.5q57 -137 125 -245q18 -28 46 -52q27 -23 48 -22h2q45 3 75.5 36t41.5 83q2 10 2 30q8 50 25.5 151t25.5 151q8 48 20 140.5t15 110.5q3 26 9 77t10 82.5t12.5 74.5t19.5 78 q6 17 6 36q0 22 -8 46q-16 44 -38 69q-19 23 -25 23h-1q-38 -10 -64.5 -30.5t-41 -51t-21.5 -58.5t-12 -69q-9 -59 -25.5 -181.5t-25.5 -185.5q-8 -62 -43 -241q-7 7 -18.5 16.5t-17.5 16.5t-9 14q-17 41 -119 303q-6 14 -44 88.5t-46 116.5q-3 16 -7 30.5t-11.5 30.5 t-11.5 24.5t-16.5 26.5t-15 22t-18.5 25t-18 23q-24 35 -53 35q-16 0 -33 -11q-29 -16 -39 -54z" />
<glyph unicode="W" horiz-adv-x="1382" d="M173 608q20 -270 73 -483q25 -99 80 -135q71 8 103 47t50 108q17 61 45.5 178t42.5 169q64 226 80 278q9 -17 23.5 -38t17.5 -30q17 -50 48 -149.5t48 -149.5q24 -72 107 -297q11 -34 37 -54q25 -19 58 -19h3q63 5 86 92q4 20 4 35q4 45 14 167.5t18.5 209t18.5 168.5 q2 25 9.5 122t13 138.5t22.5 113t44 127.5q10 21 10 36q0 14 -9 26q-17 20 -56 20h-11q-54 -2 -88 -38.5t-43 -108.5q-25 -194 -49 -477l-19 -220h-22q-8 31 -43 164t-55 205q-1 2 -7 23.5t-7 25.5t-7 23.5t-8.5 25t-8.5 22.5t-10.5 24.5t-11.5 22t-13 23.5t-14.5 20 t-17.5 21q-39 36 -76 36q-11 0 -21 -3q-46 -13 -65 -78q-72 -267 -131 -475q-11 -32 -45 -125q-6 0 -17 1t-16 1q-2 28 -13.5 184.5t-12.5 239.5q-1 52 -1 87q1 18 1 31q0 40 2.5 120t3.5 121q0 58 -27 92q-25 31 -62 31h-7q-38 -2 -64 -37q-25 -34 -24 -82q0 -325 19 -580z " />
<glyph unicode="X" d="M168 238q1 23 14.5 48t32.5 40q122 112 250 262q-28 48 -88 143t-88 143q-7 11 -22.5 34.5t-24.5 38t-18 35t-11 38.5q-2 12 -2 24q1 28 9 58q12 44 34 61q24 17 50 25q10 3 21 2q17 0 36 -6q31 -12 53 -49q24 -42 53.5 -90t51.5 -81.5t58 -88.5t54 -84q138 185 164 223 q26 35 64.5 62t76.5 34h5q23 0 61 -28q41 -31 40 -48q0 -52 -286 -454q32 -52 114 -182t125 -201q7 -14 5 -38.5t-11 -35.5q-5 -6 -26 -29t-30 -32.5t-26.5 -26t-33 -27t-31.5 -18.5q-5 -2 -10 -2q-20 0 -52 20q-42 26 -57 53q-22 42 -43.5 90.5t-47.5 109t-40 91.5 q-79 -105 -111 -145q-52 -70 -98 -111q-4 -3 -13 -3q-22 0 -77 18q-78 26 -86 36q-39 49 -39 86v5z" />
<glyph unicode="Y" horiz-adv-x="888" d="M102 1042v6q0 55 50 66q12 3 23 3q43 0 61 -50q10 -26 18 -82q12 -69 32 -208.5t31 -209.5q2 -11 7.5 -25t14.5 -25.5t20.5 -11t23.5 18.5q25 28 38.5 54t17 42.5t8.5 47t10 51.5q29 110 53 334q6 58 20.5 80t53.5 28q12 2 24 2q27 0 50 -10q33 -14 40 -49 q19 -89 19 -146q1 -80 1 -254v-197q-1 -66 -1 -124q0 -231 2 -326q1 -111 7 -170.5t9 -148.5v-12q0 -61 -27 -79q-23 -15 -82 -15q-17 0 -38 1q-12 12 -19.5 25t-10 32.5t-3.5 27.5t-0.5 35t0.5 30l-4 553q0 87 -19 141q-21 -35 -34 -65q-30 -52 -64 -79q-29 -23 -69 -23 q-7 0 -15 1q-106 8 -145 121q-29 87 -60 248q-10 51 -27 172q-13 96 -13 116q0 5 1 5q-1 11 -2 34t-2 35z" />
<glyph unicode="Z" d="M150 121v-10q0 -19 6 -33q8 -18 15.5 -24t28.5 -15.5t25 -11.5q42 -23 78 -23q11 0 21 2q35 5 119 29.5t130 25.5q22 1 45 1q40 0 82 -2q67 -4 152 -11.5t127 -9.5q6 -1 11 -1q62 0 75 73q1 10 1 20q0 36 -17 71q-22 45 -52 46q-94 12 -282 20q-32 2 -81 9.5t-50 11.5 q81 53 199.5 169t198 207t79.5 99q5 31 5 53q0 31 -9 46q-15 26 -74 36q-11 1 -147 12q-79 8 -174 15q-18 2 -84.5 7.5t-108.5 12t-82 17.5q-12 4 -24 4q-2 -1 -3 -1q-14 0 -23 -1.5t-24 -5.5t-22 -5q-25 -6 -26 -68v-6q1 -60 21 -116q22 -60 52 -59q57 -1 118 -4t146.5 -9 t126.5 -8q-4 -11 -7.5 -27.5t-7 -26.5t-7.5 -14q-18 -16 -52 -42t-60 -48.5t-48 -46.5q-137 -151 -324 -221q-41 -16 -55.5 -47.5t-17.5 -89.5z" />
<glyph unicode="a" />
<glyph unicode="b" />
<glyph unicode="c" />
<glyph unicode="d" />
<glyph unicode="e" />
<glyph unicode="f" />
<glyph unicode="g" />
<glyph unicode="h" />
<glyph unicode="i" />
<glyph unicode="j" />
<glyph unicode="k" />
<glyph unicode="l" />
<glyph unicode="m" />
<glyph unicode="n" />
<glyph unicode="o" />
<glyph unicode="p" />
<glyph unicode="q" />
<glyph unicode="r" />
<glyph unicode="s" />
<glyph unicode="t" />
<glyph unicode="u" />
<glyph unicode="v" />
<glyph unicode="w" />
<glyph unicode="x" />
<glyph unicode="y" />
<glyph unicode="z" />
<glyph unicode="&#xa0;" />
<glyph unicode="&#x2000;" horiz-adv-x="710" />
<glyph unicode="&#x2001;" horiz-adv-x="1421" />
<glyph unicode="&#x2002;" horiz-adv-x="710" />
<glyph unicode="&#x2003;" horiz-adv-x="1421" />
<glyph unicode="&#x2004;" horiz-adv-x="473" />
<glyph unicode="&#x2005;" horiz-adv-x="355" />
<glyph unicode="&#x2006;" horiz-adv-x="236" />
<glyph unicode="&#x2007;" horiz-adv-x="236" />
<glyph unicode="&#x2008;" horiz-adv-x="177" />
<glyph unicode="&#x2009;" horiz-adv-x="284" />
<glyph unicode="&#x200a;" horiz-adv-x="78" />
<glyph unicode="&#x202f;" horiz-adv-x="284" />
<glyph unicode="&#x205f;" horiz-adv-x="355" />
<glyph unicode="&#xe000;" horiz-adv-x="1024" d="M0 0z" />
</font>
</defs>
</svg>
